<svg xmlns="http://www.w3.org/2000/svg" class="graphdiagram" viewBox="-4603.247651128853 -1357.3710209699573 1745 863"><g class="layer relationships"><g class="related-pair"><g class="relationship" transform="translate(-3937.532174448814,-900.0220012664795) rotate(0)"><path class="relationship" d="M 31.663960575130677 1 L 380.17326712137543 1 L 380.17326712137543 4 L 388.17326712137543 0 L 380.17326712137543 -4 L 380.17326712137543 -1 L 31.663960575130677 -1 Z" fill="rgba(0, 0, 0, 0.3)" stroke="rgb(51, 51, 51)" stroke-width="0px"/><text class="type" text-anchor="middle" baseline-shift="30%" alignment-baseline="alphabetic" x="205.91861384825307" y="0" font-size="14px" font-family="&quot;Helvetica Neue&quot;, Helvetica, Arial, sans-serif">HAS_CONCEPT</text></g></g><g class="related-pair"><g class="relationship" transform="translate(-3511.368977928166,-900.0220012664795) rotate(0)"><path class="relationship" d="M 37.98992939927297 1 L 262.6138035362135 1 L 262.6138035362135 4 L 270.6138035362135 0 L 262.6138035362135 -4 L 262.6138035362135 -1 L 37.98992939927297 -1 Z" fill="rgba(0, 0, 0, 0.3)" stroke="rgb(51, 51, 51)" stroke-width="0px"/><text class="type" text-anchor="middle" baseline-shift="30%" alignment-baseline="alphabetic" x="150.30186646774322" y="0" font-size="14px" font-family="&quot;Helvetica Neue&quot;, Helvetica, Arial, sans-serif">HAS_MESH</text></g></g><g class="related-pair"><g class="relationship" transform="translate(-3195.193121671676,-900.0220012664795) rotate(-90)"><path class="relationship" d="M 45.562052720276455 1 L 166.23789454153345 1 L 166.23789454153345 4 L 174.23789454153345 0 L 166.23789454153345 -4 L 166.23789454153345 -1 L 45.562052720276455 -1 Z" fill="rgba(0, 0, 0, 0.3)" stroke="rgb(51, 51, 51)" stroke-width="0px"/><text class="type" text-anchor="middle" baseline-shift="30%" alignment-baseline="alphabetic" x="105.89997363090495" y="0" font-size="14px" font-family="&quot;Helvetica Neue&quot;, Helvetica, Arial, sans-serif">HAS_PARENT</text></g></g><g class="related-pair"><g class="relationship" transform="translate(-4250.571060180665,-900.0220012664795) rotate(0)"><path class="relationship" d="M 42.51910057799309 1 L 273.3749251567204 1 L 273.3749251567204 4 L 281.3749251567204 0 L 273.3749251567204 -4 L 273.3749251567204 -1 L 42.51910057799309 -1 Z" fill="rgba(0, 0, 0, 0.3)" stroke="rgb(51, 51, 51)" stroke-width="0px"/><text class="type" text-anchor="middle" baseline-shift="30%" alignment-baseline="alphabetic" x="157.94701286735673" y="0" font-size="14px" font-family="&quot;Helvetica Neue&quot;, Helvetica, Arial, sans-serif">HAS_ARTICLE</text></g></g><g class="related-pair"><g class="relationship" transform="translate(-3937.532174448814,-900.0220012664795) rotate(-42.84906747131418)"><path class="relationship" d="M 31.663960575130677 1 L 265.0498140600513 1 L 265.0498140600513 4 L 273.0498140600513 0 L 265.0498140600513 -4 L 265.0498140600513 -1 L 31.663960575130677 -1 Z" fill="rgba(0, 0, 0, 0.3)" stroke="rgb(51, 51, 51)" stroke-width="0px"/><text class="type" text-anchor="middle" baseline-shift="30%" alignment-baseline="alphabetic" x="148.35688731759097" y="0" font-size="14px" font-family="&quot;Helvetica Neue&quot;, Helvetica, Arial, sans-serif">HAS_CONCEPT_SEQ</text></g></g><g class="related-pair"><g class="relationship" transform="translate(-3937.532174448814,-900.0220012664795) rotate(38.451888854742904)"><path class="relationship" d="M 31.663960575130677 1 L 269.6366170181633 1 L 269.6366170181633 4 L 277.6366170181633 0 L 269.6366170181633 -4 L 269.6366170181633 -1 L 31.663960575130677 -1 Z" fill="rgba(0, 0, 0, 0.3)" stroke="rgb(51, 51, 51)" stroke-width="0px"/><text class="type" text-anchor="middle" baseline-shift="30%" alignment-baseline="alphabetic" x="150.65028879664698" y="0" font-size="14px" font-family="&quot;Helvetica Neue&quot;, Helvetica, Arial, sans-serif">HAS_PIO</text></g></g><g class="related-pair"><g class="relationship" transform="translate(-3700.577197265622,-711.8641479492185) rotate(-44.84052253542089)"><path class="relationship" d="M 24.937405291828128 1 L 220.84921321254615 1 L 220.84921321254615 4 L 228.84921321254615 0 L 220.84921321254615 -4 L 220.84921321254615 -1 L 24.937405291828128 -1 Z" fill="rgba(0, 0, 0, 0.3)" stroke="rgb(51, 51, 51)" stroke-width="0px"/><text class="type" text-anchor="middle" baseline-shift="30%" alignment-baseline="alphabetic" x="122.89330925218714" y="0" font-size="14px" font-family="&quot;Helvetica Neue&quot;, Helvetica, Arial, sans-serif">HAS_CONCEPT</text></g></g><g class="related-pair"><g class="relationship" transform="translate(-4250.571060180665,-1119.8219485282893) rotate(0)"><path class="relationship" d="M 28.771785945581215 1 L 276.98691567813665 1 L 276.98691567813665 4 L 284.98691567813665 0 L 276.98691567813665 -4 L 276.98691567813665 -1 L 28.771785945581215 -1 Z" fill="rgba(0, 0, 0, 0.3)" stroke="rgb(51, 51, 51)" stroke-width="0px"/><text class="type" text-anchor="middle" baseline-shift="30%" alignment-baseline="alphabetic" x="152.87935081185896" y="0" font-size="14px" font-family="&quot;Helvetica Neue&quot;, Helvetica, Arial, sans-serif">HAS_TERM</text></g></g><g class="related-pair"><g class="relationship" transform="translate(-4250.571060180665,-900.0220012664795) rotate(-90)"><path class="relationship" d="M 42.51910057799309 1 L 183.0281613162287 1 L 183.0281613162287 4 L 191.0281613162287 0 L 183.0281613162287 -4 L 183.0281613162287 -1 L 42.51910057799309 -1 Z" fill="rgba(0, 0, 0, 0.3)" stroke="rgb(51, 51, 51)" stroke-width="0px"/><text class="type" text-anchor="middle" baseline-shift="30%" alignment-baseline="alphabetic" x="112.77363094711089" y="0" font-size="14px" font-family="&quot;Helvetica Neue&quot;, Helvetica, Arial, sans-serif">HAS_TOPIC</text></g></g><g class="related-pair"><g class="relationship" transform="translate(-3937.532174448814,-900.0220012664795) rotate(-144.92542572021927)"><path class="relationship" d="M 31.663960575130677 1 L 345.7270516951799 1 L 345.7270516951799 4 L 353.7270516951799 0 L 345.7270516951799 -4 L 345.7270516951799 -1 L 31.663960575130677 -1 Z" fill="rgba(0, 0, 0, 0.3)" stroke="rgb(51, 51, 51)" stroke-width="0px"/><text class="type" text-anchor="middle" baseline-shift="30%" alignment-baseline="alphabetic" x="-188.6955061351553" y="0" font-size="14px" font-family="&quot;Helvetica Neue&quot;, Helvetica, Arial, sans-serif" transform="rotate(180)">HAS_TOPIC</text></g></g></g><g class="layer nodes"><circle class="node node-id-0" r="32.49277039927297" fill="rgb(247, 247, 249)" stroke="rgba(0, 0, 0, 0.3)" stroke-width="0.994318px" cx="-3511.368977928166" cy="-900.0220012664795"/><circle class="node node-id-1" r="26.166801575130677" fill="rgb(247, 247, 249)" stroke="rgba(0, 0, 0, 0.3)" stroke-width="0.994318px" cx="-3937.532174448814" cy="-900.0220012664795"/><g class="caption"><text class="caption node" text-anchor="middle" alignment-baseline="central" x="-3511.368977928166" y="-900.0220012664795" fill="rgb(51, 51, 51)" font-size="14px" font-family="&quot;Helvetica Neue&quot;, Helvetica, Arial, sans-serif">Concept</text></g><g class="caption"><text class="caption node" text-anchor="middle" alignment-baseline="central" x="-3937.532174448814" y="-900.0220012664795" fill="rgb(51, 51, 51)" font-size="14px" font-family="&quot;Helvetica Neue&quot;, Helvetica, Arial, sans-serif">Article</text></g><circle class="node node-id-2" r="23.274626945581215" fill="rgb(247, 247, 249)" stroke="rgba(0, 0, 0, 0.3)" stroke-width="0.994318px" cx="-4250.571060180665" cy="-1119.8219485282893"/><circle class="node node-id-3" r="37.0219415779931" fill="rgb(247, 247, 249)" stroke="rgba(0, 0, 0, 0.3)" stroke-width="0.994318px" cx="-4250.571060180665" cy="-900.0220012664795"/><circle class="node node-id-4" r="22.554811053714385" fill="rgb(247, 247, 249)" stroke="rgba(0, 0, 0, 0.3)" stroke-width="0.994318px" cx="-3937.532174448814" cy="-1119.8219485282893"/><g class="caption"><text class="caption node" text-anchor="middle" alignment-baseline="central" x="-4250.571060180665" y="-1119.8219485282893" fill="rgb(51, 51, 51)" font-size="14px" font-family="&quot;Helvetica Neue&quot;, Helvetica, Arial, sans-serif">Topic</text></g><circle class="node node-id-5" r="40.06489372027646" fill="rgb(247, 247, 249)" stroke="rgba(0, 0, 0, 0.3)" stroke-width="0.994318px" cx="-3195.193121671676" cy="-900.0220012664795"/><g class="caption"><text class="caption node" text-anchor="middle" alignment-baseline="central" x="-4250.571060180665" y="-900.0220012664795" fill="rgb(51, 51, 51)" font-size="14px" font-family="&quot;Helvetica Neue&quot;, Helvetica, Arial, sans-serif">Collection</text></g><circle class="node node-id-6" r="40.06489372027646" fill="rgb(247, 247, 249)" stroke="rgba(0, 0, 0, 0.3)" stroke-width="0.994318px" cx="-3195.193121671676" cy="-1119.8219485282893"/><g class="caption"><text class="caption node" text-anchor="middle" alignment-baseline="central" x="-3937.532174448814" y="-1119.8219485282893" fill="rgb(51, 51, 51)" font-size="14px" font-family="&quot;Helvetica Neue&quot;, Helvetica, Arial, sans-serif">Term</text></g><circle class="node node-id-8" r="44.655251604603" fill="rgb(247, 247, 249)" stroke="rgba(0, 0, 0, 0.3)" stroke-width="0.994318px" cx="-3700.577197265622" cy="-1119.8219485282893"/><g class="caption"><text class="caption node" text-anchor="middle" alignment-baseline="central" x="-3195.193121671676" y="-900.0220012664795" fill="rgb(51, 51, 51)" font-size="14px" font-family="&quot;Helvetica Neue&quot;, Helvetica, Arial, sans-serif">MeshNode</text></g><g class="caption"><text class="caption node" text-anchor="middle" alignment-baseline="central" x="-3195.193121671676" y="-1119.8219485282893" fill="rgb(51, 51, 51)" font-size="14px" font-family="&quot;Helvetica Neue&quot;, Helvetica, Arial, sans-serif">MeshNode</text></g><circle class="node node-id-9" r="19.440246291828128" fill="rgb(247, 247, 249)" stroke="rgba(0, 0, 0, 0.3)" stroke-width="0.994318px" cx="-3700.577197265622" cy="-711.8641479492185"/><g class="caption"><text class="caption node" text-anchor="middle" alignment-baseline="central" x="-3700.577197265622" y="-1119.8219485282893" fill="rgb(51, 51, 51)" font-size="14px" font-family="&quot;Helvetica Neue&quot;, Helvetica, Arial, sans-serif">ConceptSeq</text></g><g class="caption"><text class="caption node" text-anchor="middle" alignment-baseline="central" x="-3700.577197265622" y="-711.8641479492185" fill="rgb(51, 51, 51)" font-size="14px" font-family="&quot;Helvetica Neue&quot;, Helvetica, Arial, sans-serif">PIO</text></g></g><g class="layer properties"><g class="speech-bubble node-speech-bubble" transform="translate(-3511.368977928166,-932.5147716657525) "><path class="speech-bubble-outline" transform="scale(1,-1) " d="M 0 0 L -4 12 L -59.04541015625 12 A 4 4 0 0 0 -63.04541015625 16 L -63.04541015625 72 A 4 4 0 0 0 -59.04541015625 76 L 59.04541015625 76 A 4 4 0 0 0 63.04541015625 72 L 63.04541015625 16 A 4 4 0 0 0 59.04541015625 12 L 4 12 Z" fill="rgb(255, 255, 255)" stroke="rgba(0, 0, 0, 0.5)" stroke-width="0.994318px"/><text class="speech-bubble-content property-key" x="41.32666015625" y="-65" alignment-baseline="central" text-anchor="end" font-size="14px" font-family="&quot;Helvetica Neue&quot;, Helvetica, Arial, sans-serif" xml:space="preserve">cui: </text><text class="speech-bubble-content property-key" x="41.32666015625" y="-51" alignment-baseline="central" text-anchor="end" font-size="14px" font-family="&quot;Helvetica Neue&quot;, Helvetica, Arial, sans-serif" xml:space="preserve">preferred_term: </text><text class="speech-bubble-content property-value" x="41.32666015625" y="-65" alignment-baseline="central" font-size="14px" font-family="&quot;Helvetica Neue&quot;, Helvetica, Arial, sans-serif">""</text><text class="speech-bubble-content property-value" x="41.32666015625" y="-51" alignment-baseline="central" font-size="14px" font-family="&quot;Helvetica Neue&quot;, Helvetica, Arial, sans-serif">""</text><text class="speech-bubble-content property-key" x="41.32666015625" y="-37" alignment-baseline="central" text-anchor="end" font-size="14px" font-family="&quot;Helvetica Neue&quot;, Helvetica, Arial, sans-serif" xml:space="preserve">section: </text><text class="speech-bubble-content property-value" x="41.32666015625" y="-37" alignment-baseline="central" font-size="14px" font-family="&quot;Helvetica Neue&quot;, Helvetica, Arial, sans-serif">""</text><text class="speech-bubble-content property-key" x="41.32666015625" y="-23" alignment-baseline="central" text-anchor="end" font-size="14px" font-family="&quot;Helvetica Neue&quot;, Helvetica, Arial, sans-serif" xml:space="preserve">sem_types: </text><text class="speech-bubble-content property-value" x="41.32666015625" y="-23" alignment-baseline="central" font-size="14px" font-family="&quot;Helvetica Neue&quot;, Helvetica, Arial, sans-serif">[""]</text></g><g class="speech-bubble node-speech-bubble" transform="translate(-3937.532174448814,-873.8551996913488) "><path class="speech-bubble-outline" transform="scale(1,1) " d="M 0 0 L -4 12 L -52.048828125 12 A 4 4 0 0 0 -56.048828125 16 L -56.048828125 226 A 4 4 0 0 0 -52.048828125 230 L 52.048828125 230 A 4 4 0 0 0 56.048828125 226 L 56.048828125 16 A 4 4 0 0 0 52.048828125 12 L 4 12 Z" fill="rgb(255, 255, 255)" stroke="rgba(0, 0, 0, 0.5)" stroke-width="0.994318px"/><text class="speech-bubble-content property-key" x="34.330078125" y="23" alignment-baseline="central" text-anchor="end" font-size="14px" font-family="&quot;Helvetica Neue&quot;, Helvetica, Arial, sans-serif" xml:space="preserve">cord_uid: </text><text class="speech-bubble-content property-key" x="34.330078125" y="37" alignment-baseline="central" text-anchor="end" font-size="14px" font-family="&quot;Helvetica Neue&quot;, Helvetica, Arial, sans-serif" xml:space="preserve">title: </text><text class="speech-bubble-content property-value" x="34.330078125" y="23" alignment-baseline="central" font-size="14px" font-family="&quot;Helvetica Neue&quot;, Helvetica, Arial, sans-serif">""</text><text class="speech-bubble-content property-value" x="34.330078125" y="37" alignment-baseline="central" font-size="14px" font-family="&quot;Helvetica Neue&quot;, Helvetica, Arial, sans-serif">""</text><text class="speech-bubble-content property-key" x="34.330078125" y="51" alignment-baseline="central" text-anchor="end" font-size="14px" font-family="&quot;Helvetica Neue&quot;, Helvetica, Arial, sans-serif" xml:space="preserve">authors: </text><text class="speech-bubble-content property-value" x="34.330078125" y="51" alignment-baseline="central" font-size="14px" font-family="&quot;Helvetica Neue&quot;, Helvetica, Arial, sans-serif">""</text><text class="speech-bubble-content property-key" x="34.330078125" y="65" alignment-baseline="central" text-anchor="end" font-size="14px" font-family="&quot;Helvetica Neue&quot;, Helvetica, Arial, sans-serif" xml:space="preserve">journal: </text><text class="speech-bubble-content property-key" x="34.330078125" y="79" alignment-baseline="central" text-anchor="end" font-size="14px" font-family="&quot;Helvetica Neue&quot;, Helvetica, Arial, sans-serif" xml:space="preserve">publish_time: </text><text class="speech-bubble-content property-key" x="34.330078125" y="93" alignment-baseline="central" text-anchor="end" font-size="14px" font-family="&quot;Helvetica Neue&quot;, Helvetica, Arial, sans-serif" xml:space="preserve">abstract: </text><text class="speech-bubble-content property-value" x="34.330078125" y="65" alignment-baseline="central" font-size="14px" font-family="&quot;Helvetica Neue&quot;, Helvetica, Arial, sans-serif">""</text><text class="speech-bubble-content property-value" x="34.330078125" y="79" alignment-baseline="central" font-size="14px" font-family="&quot;Helvetica Neue&quot;, Helvetica, Arial, sans-serif">""</text><text class="speech-bubble-content property-value" x="34.330078125" y="93" alignment-baseline="central" font-size="14px" font-family="&quot;Helvetica Neue&quot;, Helvetica, Arial, sans-serif">""</text><text class="speech-bubble-content property-key" x="34.330078125" y="107" alignment-baseline="central" text-anchor="end" font-size="14px" font-family="&quot;Helvetica Neue&quot;, Helvetica, Arial, sans-serif" xml:space="preserve">doi: </text><text class="speech-bubble-content property-key" x="34.330078125" y="121" alignment-baseline="central" text-anchor="end" font-size="14px" font-family="&quot;Helvetica Neue&quot;, Helvetica, Arial, sans-serif" xml:space="preserve">url: </text><text class="speech-bubble-content property-key" x="34.330078125" y="135" alignment-baseline="central" text-anchor="end" font-size="14px" font-family="&quot;Helvetica Neue&quot;, Helvetica, Arial, sans-serif" xml:space="preserve">sha: </text><text class="speech-bubble-content property-key" x="34.330078125" y="149" alignment-baseline="central" text-anchor="end" font-size="14px" font-family="&quot;Helvetica Neue&quot;, Helvetica, Arial, sans-serif" xml:space="preserve">source_x: </text><text class="speech-bubble-content property-key" x="34.330078125" y="163" alignment-baseline="central" text-anchor="end" font-size="14px" font-family="&quot;Helvetica Neue&quot;, Helvetica, Arial, sans-serif" xml:space="preserve">pmcid: </text><text class="speech-bubble-content property-key" x="34.330078125" y="177" alignment-baseline="central" text-anchor="end" font-size="14px" font-family="&quot;Helvetica Neue&quot;, Helvetica, Arial, sans-serif" xml:space="preserve">pubmed_id: </text><text class="speech-bubble-content property-key" x="34.330078125" y="191" alignment-baseline="central" text-anchor="end" font-size="14px" font-family="&quot;Helvetica Neue&quot;, Helvetica, Arial, sans-serif" xml:space="preserve">license: </text><text class="speech-bubble-content property-key" x="34.330078125" y="205" alignment-baseline="central" text-anchor="end" font-size="14px" font-family="&quot;Helvetica Neue&quot;, Helvetica, Arial, sans-serif" xml:space="preserve">microsoft_id: </text><text class="speech-bubble-content property-key" x="34.330078125" y="219" alignment-baseline="central" text-anchor="end" font-size="14px" font-family="&quot;Helvetica Neue&quot;, Helvetica, Arial, sans-serif" xml:space="preserve">who_id: </text><text class="speech-bubble-content property-value" x="34.330078125" y="107" alignment-baseline="central" font-size="14px" font-family="&quot;Helvetica Neue&quot;, Helvetica, Arial, sans-serif">""</text><text class="speech-bubble-content property-value" x="34.330078125" y="121" alignment-baseline="central" font-size="14px" font-family="&quot;Helvetica Neue&quot;, Helvetica, Arial, sans-serif">""</text><text class="speech-bubble-content property-value" x="34.330078125" y="135" alignment-baseline="central" font-size="14px" font-family="&quot;Helvetica Neue&quot;, Helvetica, Arial, sans-serif">[""]</text><text class="speech-bubble-content property-value" x="34.330078125" y="149" alignment-baseline="central" font-size="14px" font-family="&quot;Helvetica Neue&quot;, Helvetica, Arial, sans-serif">""</text><text class="speech-bubble-content property-value" x="34.330078125" y="163" alignment-baseline="central" font-size="14px" font-family="&quot;Helvetica Neue&quot;, Helvetica, Arial, sans-serif">""</text><text class="speech-bubble-content property-value" x="34.330078125" y="177" alignment-baseline="central" font-size="14px" font-family="&quot;Helvetica Neue&quot;, Helvetica, Arial, sans-serif">""</text><text class="speech-bubble-content property-value" x="34.330078125" y="191" alignment-baseline="central" font-size="14px" font-family="&quot;Helvetica Neue&quot;, Helvetica, Arial, sans-serif">""</text><text class="speech-bubble-content property-value" x="34.330078125" y="205" alignment-baseline="central" font-size="14px" font-family="&quot;Helvetica Neue&quot;, Helvetica, Arial, sans-serif">""</text><text class="speech-bubble-content property-value" x="34.330078125" y="219" alignment-baseline="central" font-size="14px" font-family="&quot;Helvetica Neue&quot;, Helvetica, Arial, sans-serif">""</text></g><g class="speech-bubble node-speech-bubble" transform="translate(-4267.028706723472,-1136.279595071097) "><path class="speech-bubble-outline" transform="scale(-1,-1) " d="M 0 0 L 16 12 L 49.4619140625 12 A 4 4 0 0 1 53.4619140625 16 L 53.4619140625 30 A 4 4 0 0 1 49.4619140625 34 L 16 34 A 4 4 0 0 1 12 30 L 12 16 Z" fill="rgb(255, 255, 255)" stroke="rgba(0, 0, 0, 0.5)" stroke-width="0.994318px"/><text class="speech-bubble-content property-key" x="-30.7861328125" y="-23" alignment-baseline="central" text-anchor="end" font-size="14px" font-family="&quot;Helvetica Neue&quot;, Helvetica, Arial, sans-serif" xml:space="preserve">id: </text><text class="speech-bubble-content property-value" x="-30.7861328125" y="-23" alignment-baseline="central" font-size="14px" font-family="&quot;Helvetica Neue&quot;, Helvetica, Arial, sans-serif">int</text></g><g class="speech-bubble node-speech-bubble" transform="translate(-4276.749526123156,-873.8435353239884) "><path class="speech-bubble-outline" transform="scale(-1,1) " d="M 0 0 L 16 12 L 113.8701171875 12 A 4 4 0 0 1 117.8701171875 16 L 117.8701171875 30 A 4 4 0 0 1 113.8701171875 34 L 16 34 A 4 4 0 0 1 12 30 L 12 16 Z" fill="rgb(255, 255, 255)" stroke="rgba(0, 0, 0, 0.5)" stroke-width="0.994318px"/><text class="speech-bubble-content property-key" x="-25.939453125" y="23" alignment-baseline="central" text-anchor="end" font-size="14px" font-family="&quot;Helvetica Neue&quot;, Helvetica, Arial, sans-serif" xml:space="preserve">cord_version: </text><text class="speech-bubble-content property-value" x="-25.939453125" y="23" alignment-baseline="central" font-size="14px" font-family="&quot;Helvetica Neue&quot;, Helvetica, Arial, sans-serif">""</text></g><g class="speech-bubble node-speech-bubble" transform="translate(-3914.9773633951,-1119.8219485282893) "><path class="speech-bubble-outline" transform="scale(1,1) " d="M 0 0 L 12 -4 L 12 -7 A 4 4 0 0 1 16 -11 L 56.2841796875 -11 A 4 4 0 0 1 60.2841796875 -7 L 60.2841796875 7 A 4 4 0 0 1 56.2841796875 11 L 16 11 A 4 4 0 0 1 12 7 L 12 4 Z" fill="rgb(255, 255, 255)" stroke="rgba(0, 0, 0, 0.5)" stroke-width="0.994318px"/><text class="speech-bubble-content property-key" x="46.3447265625" y="0" alignment-baseline="central" text-anchor="end" font-size="14px" font-family="&quot;Helvetica Neue&quot;, Helvetica, Arial, sans-serif" xml:space="preserve">text: </text><text class="speech-bubble-content property-value" x="46.3447265625" y="0" alignment-baseline="central" font-size="14px" font-family="&quot;Helvetica Neue&quot;, Helvetica, Arial, sans-serif">""</text></g><g class="speech-bubble node-speech-bubble" transform="translate(-3166.8629636345504,-871.6918432293537) "><path class="speech-bubble-outline" transform="scale(1,1) " d="M 0 0 L 16 12 L 95.9873046875 12 A 4 4 0 0 1 99.9873046875 16 L 99.9873046875 44 A 4 4 0 0 1 95.9873046875 48 L 16 48 A 4 4 0 0 1 12 44 L 12 16 Z" fill="rgb(255, 255, 255)" stroke="rgba(0, 0, 0, 0.5)" stroke-width="0.994318px"/><text class="speech-bubble-content property-key" x="86.0478515625" y="23" alignment-baseline="central" text-anchor="end" font-size="14px" font-family="&quot;Helvetica Neue&quot;, Helvetica, Arial, sans-serif" xml:space="preserve">tree_code: </text><text class="speech-bubble-content property-value" x="86.0478515625" y="23" alignment-baseline="central" font-size="14px" font-family="&quot;Helvetica Neue&quot;, Helvetica, Arial, sans-serif">""</text><text class="speech-bubble-content property-key" x="86.0478515625" y="37" alignment-baseline="central" text-anchor="end" font-size="14px" font-family="&quot;Helvetica Neue&quot;, Helvetica, Arial, sans-serif" xml:space="preserve">term: </text><text class="speech-bubble-content property-value" x="86.0478515625" y="37" alignment-baseline="central" font-size="14px" font-family="&quot;Helvetica Neue&quot;, Helvetica, Arial, sans-serif">""</text></g><g class="speech-bubble node-speech-bubble" transform="translate(-3195.193121671676,-1159.8868422485657) "><path class="speech-bubble-outline" transform="scale(1,-1) " d="M 0 0 L -4 12 L -39.99365234375 12 A 4 4 0 0 0 -43.99365234375 16 L -43.99365234375 44 A 4 4 0 0 0 -39.99365234375 48 L 39.99365234375 48 A 4 4 0 0 0 43.99365234375 44 L 43.99365234375 16 A 4 4 0 0 0 39.99365234375 12 L 4 12 Z" fill="rgb(255, 255, 255)" stroke="rgba(0, 0, 0, 0.5)" stroke-width="0.994318px"/><text class="speech-bubble-content property-key" x="30.05419921875" y="-37" alignment-baseline="central" text-anchor="end" font-size="14px" font-family="&quot;Helvetica Neue&quot;, Helvetica, Arial, sans-serif" xml:space="preserve">tree_code: </text><text class="speech-bubble-content property-value" x="30.05419921875" y="-37" alignment-baseline="central" font-size="14px" font-family="&quot;Helvetica Neue&quot;, Helvetica, Arial, sans-serif">""</text><text class="speech-bubble-content property-key" x="30.05419921875" y="-23" alignment-baseline="central" text-anchor="end" font-size="14px" font-family="&quot;Helvetica Neue&quot;, Helvetica, Arial, sans-serif" xml:space="preserve">term: </text><text class="speech-bubble-content property-value" x="30.05419921875" y="-23" alignment-baseline="central" font-size="14px" font-family="&quot;Helvetica Neue&quot;, Helvetica, Arial, sans-serif">""</text></g><g class="speech-bubble node-speech-bubble" transform="translate(-3669.0011660404157,-1151.3979797534955) "><path class="speech-bubble-outline" transform="scale(1,-1) " d="M 0 0 L 16 12 L 90.5390625 12 A 4 4 0 0 1 94.5390625 16 L 94.5390625 44 A 4 4 0 0 1 90.5390625 48 L 16 48 A 4 4 0 0 1 12 44 L 12 16 Z" fill="rgb(255, 255, 255)" stroke="rgba(0, 0, 0, 0.5)" stroke-width="0.994318px"/><text class="speech-bubble-content property-key" x="72.8203125" y="-37" alignment-baseline="central" text-anchor="end" font-size="14px" font-family="&quot;Helvetica Neue&quot;, Helvetica, Arial, sans-serif" xml:space="preserve">seq: </text><text class="speech-bubble-content property-value" x="72.8203125" y="-37" alignment-baseline="central" font-size="14px" font-family="&quot;Helvetica Neue&quot;, Helvetica, Arial, sans-serif">[""]</text><text class="speech-bubble-content property-key" x="72.8203125" y="-23" alignment-baseline="central" text-anchor="end" font-size="14px" font-family="&quot;Helvetica Neue&quot;, Helvetica, Arial, sans-serif" xml:space="preserve">seq_len: </text><text class="speech-bubble-content property-value" x="72.8203125" y="-23" alignment-baseline="central" font-size="14px" font-family="&quot;Helvetica Neue&quot;, Helvetica, Arial, sans-serif">int</text></g><g class="speech-bubble relationship-speech-bubble" transform="translate(-3731.613560600561,-900.0220012664795) "><path class="speech-bubble-outline" transform="scale(1,1) " d="M 0 0 L -4 12 L -28.40673828125 12 A 4 4 0 0 0 -32.40673828125 16 L -32.40673828125 30 A 4 4 0 0 0 -28.40673828125 34 L 28.40673828125 34 A 4 4 0 0 0 32.40673828125 30 L 32.40673828125 16 A 4 4 0 0 0 28.40673828125 12 L 4 12 Z" fill="rgb(255, 255, 255)" stroke="rgba(0, 0, 0, 0.5)" stroke-width="0.994318px"/><text class="speech-bubble-content property-key" x="13.62060546875" y="23" alignment-baseline="central" text-anchor="end" font-size="14px" font-family="&quot;Helvetica Neue&quot;, Helvetica, Arial, sans-serif" xml:space="preserve">count: </text><text class="speech-bubble-content property-value" x="13.62060546875" y="23" alignment-baseline="central" font-size="14px" font-family="&quot;Helvetica Neue&quot;, Helvetica, Arial, sans-serif">int</text></g><g class="speech-bubble relationship-speech-bubble" transform="translate(-3613.436967445892,-798.5206295643771) "><path class="speech-bubble-outline" transform="scale(1,1) " d="M 0 0 L 16 12 L 72.8134765625 12 A 4 4 0 0 1 76.8134765625 16 L 76.8134765625 30 A 4 4 0 0 1 72.8134765625 34 L 16 34 A 4 4 0 0 1 12 30 L 12 16 Z" fill="rgb(255, 255, 255)" stroke="rgba(0, 0, 0, 0.5)" stroke-width="0.994318px"/><text class="speech-bubble-content property-key" x="58.02734375" y="23" alignment-baseline="central" text-anchor="end" font-size="14px" font-family="&quot;Helvetica Neue&quot;, Helvetica, Arial, sans-serif" xml:space="preserve">count: </text><text class="speech-bubble-content property-value" x="58.02734375" y="23" alignment-baseline="central" font-size="14px" font-family="&quot;Helvetica Neue&quot;, Helvetica, Arial, sans-serif">int</text></g><g class="speech-bubble node-speech-bubble" transform="translate(-3700.577197265622,-692.4239016573904) "><path class="speech-bubble-outline" transform="scale(1,1) " d="M 0 0 L -4 12 L -22.09033203125 12 A 4 4 0 0 0 -26.09033203125 16 L -26.09033203125 44 A 4 4 0 0 0 -22.09033203125 48 L 22.09033203125 48 A 4 4 0 0 0 26.09033203125 44 L 26.09033203125 16 A 4 4 0 0 0 22.09033203125 12 L 4 12 Z" fill="rgb(255, 255, 255)" stroke="rgba(0, 0, 0, 0.5)" stroke-width="0.994318px"/><text class="speech-bubble-content property-key" x="12.15087890625" y="23" alignment-baseline="central" text-anchor="end" font-size="14px" font-family="&quot;Helvetica Neue&quot;, Helvetica, Arial, sans-serif" xml:space="preserve">text: </text><text class="speech-bubble-content property-value" x="12.15087890625" y="23" alignment-baseline="central" font-size="14px" font-family="&quot;Helvetica Neue&quot;, Helvetica, Arial, sans-serif">""</text><text class="speech-bubble-content property-key" x="12.15087890625" y="37" alignment-baseline="central" text-anchor="end" font-size="14px" font-family="&quot;Helvetica Neue&quot;, Helvetica, Arial, sans-serif" xml:space="preserve">type: </text><text class="speech-bubble-content property-value" x="12.15087890625" y="37" alignment-baseline="central" font-size="14px" font-family="&quot;Helvetica Neue&quot;, Helvetica, Arial, sans-serif">""</text></g><g class="speech-bubble relationship-speech-bubble" transform="translate(-4097.691709368806,-1119.8219485282893) "><path class="speech-bubble-outline" transform="scale(1,1) " d="M 0 0 L -4 12 L -31.130859375 12 A 4 4 0 0 0 -35.130859375 16 L -35.130859375 30 A 4 4 0 0 0 -31.130859375 34 L 31.130859375 34 A 4 4 0 0 0 35.130859375 30 L 35.130859375 16 A 4 4 0 0 0 31.130859375 12 L 4 12 Z" fill="rgb(255, 255, 255)" stroke="rgba(0, 0, 0, 0.5)" stroke-width="0.994318px"/><text class="speech-bubble-content property-key" x="4.6689453125" y="23" alignment-baseline="central" text-anchor="end" font-size="14px" font-family="&quot;Helvetica Neue&quot;, Helvetica, Arial, sans-serif" xml:space="preserve">prob: </text><text class="speech-bubble-content property-value" x="4.6689453125" y="23" alignment-baseline="central" font-size="14px" font-family="&quot;Helvetica Neue&quot;, Helvetica, Arial, sans-serif">float</text></g><g class="speech-bubble relationship-speech-bubble" transform="translate(-4250.571060180665,-1012.7956322135904) "><path class="speech-bubble-outline" transform="scale(1,1) " d="M 0 0 L 12 -4 L 12 -7 A 4 4 0 0 1 16 -11 L 90.7099609375 -11 A 4 4 0 0 1 94.7099609375 -7 L 94.7099609375 7 A 4 4 0 0 1 90.7099609375 11 L 16 11 A 4 4 0 0 1 12 7 L 12 4 Z" fill="rgb(255, 255, 255)" stroke="rgba(0, 0, 0, 0.5)" stroke-width="0.994318px"/><text class="speech-bubble-content property-key" x="75.923828125" y="0" alignment-baseline="central" text-anchor="end" font-size="14px" font-family="&quot;Helvetica Neue&quot;, Helvetica, Arial, sans-serif" xml:space="preserve">n_topics: </text><text class="speech-bubble-content property-value" x="75.923828125" y="0" alignment-baseline="central" font-size="14px" font-family="&quot;Helvetica Neue&quot;, Helvetica, Arial, sans-serif">int</text></g><g class="speech-bubble relationship-speech-bubble" transform="translate(-4091.9614829076118,-1008.4543890689251) "><path class="speech-bubble-outline" transform="scale(-1,1) " d="M 0 0 L 16 12 L 102.3857421875 12 A 4 4 0 0 1 106.3857421875 16 L 106.3857421875 44 A 4 4 0 0 1 102.3857421875 48 L 16 48 A 4 4 0 0 1 12 44 L 12 16 Z" fill="rgb(255, 255, 255)" stroke="rgba(0, 0, 0, 0.5)" stroke-width="0.994318px"/><text class="speech-bubble-content property-key" x="-42.4619140625" y="23" alignment-baseline="central" text-anchor="end" font-size="14px" font-family="&quot;Helvetica Neue&quot;, Helvetica, Arial, sans-serif" xml:space="preserve">prob: </text><text class="speech-bubble-content property-value" x="-42.4619140625" y="23" alignment-baseline="central" font-size="14px" font-family="&quot;Helvetica Neue&quot;, Helvetica, Arial, sans-serif">float</text><text class="speech-bubble-content property-key" x="-42.4619140625" y="37" alignment-baseline="central" text-anchor="end" font-size="14px" font-family="&quot;Helvetica Neue&quot;, Helvetica, Arial, sans-serif" xml:space="preserve">n_topics: </text><text class="speech-bubble-content property-value" x="-42.4619140625" y="37" alignment-baseline="central" font-size="14px" font-family="&quot;Helvetica Neue&quot;, Helvetica, Arial, sans-serif">int</text></g></g><g class="layer overlay"><circle class="node overlay" r="32.98992939927297" stroke="none" fill="rgba(255, 255, 255, 0)" cx="-3511.368977928166" cy="-900.0220012664795"/><circle class="node overlay" r="26.663960575130677" stroke="none" fill="rgba(255, 255, 255, 0)" cx="-3937.532174448814" cy="-900.0220012664795"/><circle class="node ring" r="37.98992939927297" fill="none" stroke="rgba(255, 255, 255, 0)" stroke-width="10px" cx="-3511.368977928166" cy="-900.0220012664795"/><circle class="node ring" r="31.663960575130677" fill="none" stroke="rgba(255, 255, 255, 0)" stroke-width="10px" cx="-3937.532174448814" cy="-900.0220012664795"/><path class="relationship overlay" fill="rgba(255, 255, 255, 0)" stroke="rgba(255, 255, 255, 0)" stroke-width="10px" transform="translate(-3937.532174448814,-900.0220012664795) rotate(0)" d="M 31.663960575130677 1 L 380.17326712137543 1 L 380.17326712137543 4 L 388.17326712137543 0 L 380.17326712137543 -4 L 380.17326712137543 -1 L 31.663960575130677 -1 Z"/><circle class="node overlay" r="23.771785945581215" stroke="none" fill="rgba(255, 255, 255, 0)" cx="-4250.571060180665" cy="-1119.8219485282893"/><circle class="node ring" r="28.771785945581215" fill="none" stroke="rgba(255, 255, 255, 0)" stroke-width="10px" cx="-4250.571060180665" cy="-1119.8219485282893"/><circle class="node overlay" r="37.51910057799309" stroke="none" fill="rgba(255, 255, 255, 0)" cx="-4250.571060180665" cy="-900.0220012664795"/><circle class="node ring" r="42.51910057799309" fill="none" stroke="rgba(255, 255, 255, 0)" stroke-width="10px" cx="-4250.571060180665" cy="-900.0220012664795"/><circle class="node overlay" r="23.051970053714385" stroke="none" fill="rgba(255, 255, 255, 0)" cx="-3937.532174448814" cy="-1119.8219485282893"/><circle class="node ring" r="28.051970053714385" fill="none" stroke="rgba(255, 255, 255, 0)" stroke-width="10px" cx="-3937.532174448814" cy="-1119.8219485282893"/><circle class="node overlay" r="40.562052720276455" stroke="none" fill="rgba(255, 255, 255, 0)" cx="-3195.193121671676" cy="-900.0220012664795"/><circle class="node ring" r="45.562052720276455" fill="none" stroke="rgba(255, 255, 255, 0)" stroke-width="10px" cx="-3195.193121671676" cy="-900.0220012664795"/><circle class="node overlay" r="40.562052720276455" stroke="none" fill="rgba(255, 255, 255, 0)" cx="-3195.193121671676" cy="-1119.8219485282893"/><circle class="node ring" r="45.562052720276455" fill="none" stroke="rgba(255, 255, 255, 0)" stroke-width="10px" cx="-3195.193121671676" cy="-1119.8219485282893"/><path class="relationship overlay" fill="rgba(255, 255, 255, 0)" stroke="rgba(255, 255, 255, 0)" stroke-width="10px" transform="translate(-3511.368977928166,-900.0220012664795) rotate(0)" d="M 37.98992939927297 1 L 262.6138035362135 1 L 262.6138035362135 4 L 270.6138035362135 0 L 262.6138035362135 -4 L 262.6138035362135 -1 L 37.98992939927297 -1 Z"/><circle class="node overlay" r="45.152410604603" stroke="none" fill="rgba(255, 255, 255, 0)" cx="-3700.577197265622" cy="-1119.8219485282893"/><circle class="node ring" r="50.152410604603" fill="none" stroke="rgba(255, 255, 255, 0)" stroke-width="10px" cx="-3700.577197265622" cy="-1119.8219485282893"/><path class="relationship overlay" fill="rgba(255, 255, 255, 0)" stroke="rgba(255, 255, 255, 0)" stroke-width="10px" transform="translate(-3195.193121671676,-900.0220012664795) rotate(-90)" d="M 45.562052720276455 1 L 166.23789454153345 1 L 166.23789454153345 4 L 174.23789454153345 0 L 166.23789454153345 -4 L 166.23789454153345 -1 L 45.562052720276455 -1 Z"/><path class="relationship overlay" fill="rgba(255, 255, 255, 0)" stroke="rgba(255, 255, 255, 0)" stroke-width="10px" transform="translate(-4250.571060180665,-900.0220012664795) rotate(0)" d="M 42.51910057799309 1 L 273.3749251567204 1 L 273.3749251567204 4 L 281.3749251567204 0 L 273.3749251567204 -4 L 273.3749251567204 -1 L 42.51910057799309 -1 Z"/><circle class="node overlay" r="19.937405291828128" stroke="none" fill="rgba(255, 255, 255, 0)" cx="-3700.577197265622" cy="-711.8641479492185"/><circle class="node ring" r="24.937405291828128" fill="none" stroke="rgba(255, 255, 255, 0)" stroke-width="10px" cx="-3700.577197265622" cy="-711.8641479492185"/><path class="relationship overlay" fill="rgba(255, 255, 255, 0)" stroke="rgba(255, 255, 255, 0)" stroke-width="10px" transform="translate(-3937.532174448814,-900.0220012664795) rotate(-42.84906747131418)" d="M 31.663960575130677 1 L 265.0498140600513 1 L 265.0498140600513 4 L 273.0498140600513 0 L 265.0498140600513 -4 L 265.0498140600513 -1 L 31.663960575130677 -1 Z"/><path class="relationship overlay" fill="rgba(255, 255, 255, 0)" stroke="rgba(255, 255, 255, 0)" stroke-width="10px" transform="translate(-3937.532174448814,-900.0220012664795) rotate(38.451888854742904)" d="M 31.663960575130677 1 L 269.6366170181633 1 L 269.6366170181633 4 L 277.6366170181633 0 L 269.6366170181633 -4 L 269.6366170181633 -1 L 31.663960575130677 -1 Z"/><path class="relationship overlay" fill="rgba(255, 255, 255, 0)" stroke="rgba(255, 255, 255, 0)" stroke-width="10px" transform="translate(-3700.577197265622,-711.8641479492185) rotate(-44.84052253542089)" d="M 24.937405291828128 1 L 220.84921321254615 1 L 220.84921321254615 4 L 228.84921321254615 0 L 220.84921321254615 -4 L 220.84921321254615 -1 L 24.937405291828128 -1 Z"/><path class="relationship overlay" fill="rgba(255, 255, 255, 0)" stroke="rgba(255, 255, 255, 0)" stroke-width="10px" transform="translate(-4250.571060180665,-1119.8219485282893) rotate(0)" d="M 28.771785945581215 1 L 276.98691567813665 1 L 276.98691567813665 4 L 284.98691567813665 0 L 276.98691567813665 -4 L 276.98691567813665 -1 L 28.771785945581215 -1 Z"/><path class="relationship overlay" fill="rgba(255, 255, 255, 0)" stroke="rgba(255, 255, 255, 0)" stroke-width="10px" transform="translate(-4250.571060180665,-900.0220012664795) rotate(-90)" d="M 42.51910057799309 1 L 183.0281613162287 1 L 183.0281613162287 4 L 191.0281613162287 0 L 183.0281613162287 -4 L 183.0281613162287 -1 L 42.51910057799309 -1 Z"/><path class="relationship overlay" fill="rgba(255, 255, 255, 0)" stroke="rgba(255, 255, 255, 0)" stroke-width="10px" transform="translate(-3937.532174448814,-900.0220012664795) rotate(-144.92542572021927)" d="M 31.663960575130677 1 L 345.7270516951799 1 L 345.7270516951799 4 L 353.7270516951799 0 L 345.7270516951799 -4 L 345.7270516951799 -1 L 31.663960575130677 -1 Z"/></g></svg>