<svg xmlns="http://www.w3.org/2000/svg" class="graphdiagram" viewBox="-6061.137821999567 -2022.760092657451 4281.5576490361145 2007.0568234450097"><g class="layer relationships"><g class="related-pair"><g class="relationship" transform="translate(-3978.8703092144383,-900.0220012664795) rotate(0)"><path class="relationship" d="M 107.81731205403813 4 L 351.6994277286006 4 L 351.6994277286006 16 L 383.6994277286006 0 L 351.6994277286006 -16 L 351.6994277286006 -4 L 107.81731205403813 -4 Z" fill="rgb(0, 0, 0)" stroke="rgb(51, 51, 51)" stroke-width="0px"/><text class="type" text-anchor="middle" baseline-shift="30%" alignment-baseline="alphabetic" x="229.75836989131938" y="0" font-size="50px" font-family="&quot;Gill Sans&quot;, &quot;Gill Sans MT&quot;, Calibri, sans-serif">HAS_CONCEPT</text></g></g><g class="related-pair"><g class="relationship" transform="translate(-3464.7608236312917,-900.0220012664795) rotate(0)"><path class="relationship" d="M 130.41005785454632 4 L 313.19320395193137 4 L 313.19320395193137 16 L 345.19320395193137 0 L 313.19320395193137 -16 L 313.19320395193137 -4 L 130.41005785454632 -4 Z" fill="rgb(0, 0, 0)" stroke="rgb(51, 51, 51)" stroke-width="0px"/><text class="type" text-anchor="middle" baseline-shift="30%" alignment-baseline="alphabetic" x="221.80163090323884" y="0" font-size="50px" font-family="&quot;Gill Sans&quot;, &quot;Gill Sans MT&quot;, Calibri, sans-serif">HAS_MESH</text></g></g><g class="related-pair"><g class="relationship" transform="translate(-2962.114264249801,-900.0220012664795) rotate(-90)"><path class="relationship" d="M 157.45335542955877 4 L 477.08572757443915 4 L 477.08572757443915 16 L 509.08572757443915 0 L 477.08572757443915 -16 L 477.08572757443915 -4 L 157.45335542955877 -4 Z" fill="rgb(0, 0, 0)" stroke="rgb(51, 51, 51)" stroke-width="0px"/><text class="type" text-anchor="middle" baseline-shift="30%" alignment-baseline="alphabetic" x="317.26954150199896" y="0" font-size="50px" font-family="&quot;Gill Sans&quot;, &quot;Gill Sans MT&quot;, Calibri, sans-serif">HAS_PARENT</text></g></g><g class="related-pair"><g class="relationship" transform="translate(-4822.421157836913,-900.0220012664795) rotate(0)"><path class="relationship" d="M 146.5856692071182 4 L 703.733536568437 4 L 703.733536568437 16 L 735.733536568437 0 L 703.733536568437 -16 L 703.733536568437 -4 L 146.5856692071182 -4 Z" fill="rgb(0, 0, 0)" stroke="rgb(51, 51, 51)" stroke-width="0px"/><text class="type" text-anchor="middle" baseline-shift="30%" alignment-baseline="alphabetic" x="425.15960288777757" y="0" font-size="50px" font-family="&quot;Gill Sans&quot;, &quot;Gill Sans MT&quot;, Calibri, sans-serif">HAS_ARTICLE</text></g></g><g class="related-pair"><g class="relationship" transform="translate(-3978.8703092144383,-900.0220012664795) rotate(-90)"><path class="relationship" d="M 107.81731205403813 4 L 616.5416899295216 4 L 616.5416899295216 16 L 648.5416899295216 0 L 616.5416899295216 -16 L 616.5416899295216 -4 L 107.81731205403813 -4 Z" fill="rgb(0, 0, 0)" stroke="rgb(51, 51, 51)" stroke-width="0px"/><text class="type" text-anchor="middle" baseline-shift="30%" alignment-baseline="alphabetic" x="362.17950099177983" y="0" font-size="50px" font-family="&quot;Gill Sans&quot;, &quot;Gill Sans MT&quot;, Calibri, sans-serif">HAS_CONCEPT_SEQ</text></g></g><g class="related-pair"><g class="relationship" transform="translate(-3978.8703092144383,-900.0220012664795) rotate(-67.1178214281973)"><path class="relationship" d="M 107.81731205403813 4 L 461.1196904939837 4 L 461.1196904939837 16 L 493.1196904939837 0 L 461.1196904939837 -16 L 461.1196904939837 -4 L 107.81731205403813 -4 Z" fill="rgb(0, 0, 0)" stroke="rgb(51, 51, 51)" stroke-width="0px"/><text class="type" text-anchor="middle" baseline-shift="30%" alignment-baseline="alphabetic" x="284.4685012740109" y="0" font-size="50px" font-family="&quot;Gill Sans&quot;, &quot;Gill Sans MT&quot;, Calibri, sans-serif">HAS_PIO</text></g></g><g class="related-pair"><g class="relationship" transform="translate(-3754.544726562496,-1431.536181926726) rotate(61.400584652036514)"><path class="relationship" d="M 83.79390032795759 4 L 442.96753889063785 4 L 442.96753889063785 16 L 474.96753889063785 0 L 442.96753889063785 -16 L 442.96753889063785 -4 L 83.79390032795759 -4 Z" fill="rgb(0, 0, 0)" stroke="rgb(51, 51, 51)" stroke-width="0px"/><text class="type" text-anchor="middle" baseline-shift="30%" alignment-baseline="alphabetic" x="263.3807196092977" y="0" font-size="50px" font-family="&quot;Gill Sans&quot;, &quot;Gill Sans MT&quot;, Calibri, sans-serif">HAS_CONCEPT</text></g></g><g class="related-pair"><g class="relationship" transform="translate(-4822.421157836913,-1431.536181926726) rotate(0)"><path class="relationship" d="M 97.48811694850433 4 L 390.43745779447045 4 L 390.43745779447045 16 L 422.43745779447045 0 L 390.43745779447045 -16 L 390.43745779447045 -4 L 97.48811694850433 -4 Z" fill="rgb(0, 0, 0)" stroke="rgb(51, 51, 51)" stroke-width="0px"/><text class="type" text-anchor="middle" baseline-shift="30%" alignment-baseline="alphabetic" x="243.96278737148737" y="0" font-size="50px" font-family="&quot;Gill Sans&quot;, &quot;Gill Sans MT&quot;, Calibri, sans-serif">HAS_TERM</text></g></g><g class="related-pair"><g class="relationship" transform="translate(-4822.421157836913,-900.0220012664795) rotate(-90)"><path class="relationship" d="M 146.5856692071182 4 L 402.026063711742 4 L 402.026063711742 16 L 434.026063711742 0 L 402.026063711742 -16 L 402.026063711742 -4 L 146.5856692071182 -4 Z" fill="rgb(0, 0, 0)" stroke="rgb(51, 51, 51)" stroke-width="0px"/><text class="type" text-anchor="middle" baseline-shift="30%" alignment-baseline="alphabetic" x="274.3058664594301" y="0" font-size="50px" font-family="&quot;Gill Sans&quot;, &quot;Gill Sans MT&quot;, Calibri, sans-serif">HAS_TOPIC</text></g></g><g class="related-pair"><g class="relationship" transform="translate(-3978.8703092144383,-900.0220012664795) rotate(-147.7853213226004)"><path class="relationship" d="M 107.81731205403813 4 L 867.5501764257426 4 L 867.5501764257426 16 L 899.5501764257426 0 L 867.5501764257426 -16 L 867.5501764257426 -4 L 107.81731205403813 -4 Z" fill="rgb(0, 0, 0)" stroke="rgb(51, 51, 51)" stroke-width="0px"/><text class="type" text-anchor="middle" baseline-shift="30%" alignment-baseline="alphabetic" x="-487.6837442398904" y="0" font-size="50px" font-family="&quot;Gill Sans&quot;, &quot;Gill Sans MT&quot;, Calibri, sans-serif" transform="rotate(180)">HAS_TOPIC</text></g></g></g><g class="layer nodes"><circle class="node node-id-0" r="115.41147785454632" fill="rgb(255, 255, 255)" stroke="rgb(0, 0, 0)" stroke-width="7.99716px" cx="-3464.7608236312917" cy="-900.0220012664795"/><circle class="node node-id-1" r="92.81873205403814" fill="rgb(255, 255, 255)" stroke="rgb(0, 0, 0)" stroke-width="7.99716px" cx="-3978.8703092144383" cy="-900.0220012664795"/><g class="caption"><text class="caption node" text-anchor="middle" alignment-baseline="central" x="-3464.7608236312917" y="-900.0220012664795" fill="rgb(51, 51, 51)" font-size="50px" font-family="&quot;Gill Sans&quot;, &quot;Gill Sans MT&quot;, Calibri, sans-serif">Concept</text></g><g class="caption"><text class="caption node" text-anchor="middle" alignment-baseline="central" x="-3978.8703092144383" y="-900.0220012664795" fill="rgb(51, 51, 51)" font-size="50px" font-family="&quot;Gill Sans&quot;, &quot;Gill Sans MT&quot;, Calibri, sans-serif">Article</text></g><circle class="node node-id-2" r="82.48953694850434" fill="rgb(255, 255, 255)" stroke="rgb(0, 0, 0)" stroke-width="7.99716px" cx="-4822.421157836913" cy="-1431.536181926726"/><circle class="node node-id-3" r="131.5870892071182" fill="rgb(255, 255, 255)" stroke="rgb(0, 0, 0)" stroke-width="7.99716px" cx="-4822.421157836913" cy="-900.0220012664795"/><circle class="node node-id-4" r="79.91876590612281" fill="rgb(255, 255, 255)" stroke="rgb(0, 0, 0)" stroke-width="7.99716px" cx="-4305.06635413632" cy="-1431.536181926726"/><g class="caption"><text class="caption node" text-anchor="middle" alignment-baseline="central" x="-4822.421157836913" y="-1431.536181926726" fill="rgb(51, 51, 51)" font-size="50px" font-family="&quot;Gill Sans&quot;, &quot;Gill Sans MT&quot;, Calibri, sans-serif">Topic</text></g><circle class="node node-id-5" r="142.45477542955877" fill="rgb(255, 255, 255)" stroke="rgb(0, 0, 0)" stroke-width="7.99716px" cx="-2962.114264249801" cy="-900.0220012664795"/><g class="caption"><text class="caption node" text-anchor="middle" alignment-baseline="central" x="-4822.421157836913" y="-900.0220012664795" fill="rgb(51, 51, 51)" font-size="50px" font-family="&quot;Gill Sans&quot;, &quot;Gill Sans MT&quot;, Calibri, sans-serif">Collection</text></g><circle class="node node-id-6" r="142.45477542955877" fill="rgb(255, 255, 255)" stroke="rgb(0, 0, 0)" stroke-width="7.99716px" cx="-2962.114264249801" cy="-1566.5610842704775"/><g class="caption"><text class="caption node" text-anchor="middle" alignment-baseline="central" x="-4305.06635413632" y="-1431.536181926726" fill="rgb(51, 51, 51)" font-size="50px" font-family="&quot;Gill Sans&quot;, &quot;Gill Sans MT&quot;, Calibri, sans-serif">Term</text></g><circle class="node node-id-8" r="158.848910730725" fill="rgb(255, 255, 255)" stroke="rgb(0, 0, 0)" stroke-width="7.99716px" cx="-3978.8703092144383" cy="-1722.411181926726"/><g class="caption"><text class="caption node" text-anchor="middle" alignment-baseline="central" x="-2962.114264249801" y="-900.0220012664795" fill="rgb(51, 51, 51)" font-size="50px" font-family="&quot;Gill Sans&quot;, &quot;Gill Sans MT&quot;, Calibri, sans-serif">MeshNode</text></g><g class="caption"><text class="caption node" text-anchor="middle" alignment-baseline="central" x="-2962.114264249801" y="-1566.5610842704775" fill="rgb(51, 51, 51)" font-size="50px" font-family="&quot;Gill Sans&quot;, &quot;Gill Sans MT&quot;, Calibri, sans-serif">MeshNode</text></g><circle class="node node-id-9" r="68.7953203279576" fill="rgb(255, 255, 255)" stroke="rgb(0, 0, 0)" stroke-width="7.99716px" cx="-3754.544726562496" cy="-1431.536181926726"/><g class="caption"><text class="caption node" text-anchor="middle" alignment-baseline="central" x="-3978.8703092144383" y="-1722.411181926726" fill="rgb(51, 51, 51)" font-size="50px" font-family="&quot;Gill Sans&quot;, &quot;Gill Sans MT&quot;, Calibri, sans-serif">ConceptSeq</text></g><g class="caption"><text class="caption node" text-anchor="middle" alignment-baseline="central" x="-3754.544726562496" y="-1431.536181926726" fill="rgb(51, 51, 51)" font-size="50px" font-family="&quot;Gill Sans&quot;, &quot;Gill Sans MT&quot;, Calibri, sans-serif">PIO</text></g></g><g class="layer properties"><g class="speech-bubble node-speech-bubble" transform="translate(-3464.7608236312917,-784.6105234119332) "><path class="speech-bubble-outline" transform="scale(1,1) " d="M 0 0 L -10 20 L -210.87646484375 20 A 10 10 0 0 0 -220.87646484375 30 L -220.87646484375 230 A 10 10 0 0 0 -210.87646484375 240 L 210.87646484375 240 A 10 10 0 0 0 220.87646484375 230 L 220.87646484375 30 A 10 10 0 0 0 210.87646484375 20 L 10 20 Z" fill="rgb(255, 255, 255)" stroke="rgb(0, 0, 0)" stroke-width="2.99716px"/><text class="speech-bubble-content property-key" x="147.59521484375" y="55" alignment-baseline="central" text-anchor="end" font-size="50px" font-family="&quot;Gill Sans&quot;, &quot;Gill Sans MT&quot;, Calibri, sans-serif" xml:space="preserve">cui: </text><text class="speech-bubble-content property-key" x="147.59521484375" y="105" alignment-baseline="central" text-anchor="end" font-size="50px" font-family="&quot;Gill Sans&quot;, &quot;Gill Sans MT&quot;, Calibri, sans-serif" xml:space="preserve">preferred_term: </text><text class="speech-bubble-content property-value" x="147.59521484375" y="55" alignment-baseline="central" font-size="50px" font-family="&quot;Gill Sans&quot;, &quot;Gill Sans MT&quot;, Calibri, sans-serif">""</text><text class="speech-bubble-content property-value" x="147.59521484375" y="105" alignment-baseline="central" font-size="50px" font-family="&quot;Gill Sans&quot;, &quot;Gill Sans MT&quot;, Calibri, sans-serif">""</text><text class="speech-bubble-content property-key" x="147.59521484375" y="155" alignment-baseline="central" text-anchor="end" font-size="50px" font-family="&quot;Gill Sans&quot;, &quot;Gill Sans MT&quot;, Calibri, sans-serif" xml:space="preserve">section: </text><text class="speech-bubble-content property-value" x="147.59521484375" y="155" alignment-baseline="central" font-size="50px" font-family="&quot;Gill Sans&quot;, &quot;Gill Sans MT&quot;, Calibri, sans-serif">""</text><text class="speech-bubble-content property-key" x="147.59521484375" y="205" alignment-baseline="central" text-anchor="end" font-size="50px" font-family="&quot;Gill Sans&quot;, &quot;Gill Sans MT&quot;, Calibri, sans-serif" xml:space="preserve">sem_types: </text><text class="speech-bubble-content property-value" x="147.59521484375" y="205" alignment-baseline="central" font-size="50px" font-family="&quot;Gill Sans&quot;, &quot;Gill Sans MT&quot;, Calibri, sans-serif">[""]</text></g><g class="speech-bubble node-speech-bubble" transform="translate(-3978.8703092144383,-807.2032692124413) "><path class="speech-bubble-outline" transform="scale(1,1) " d="M 0 0 L -10 20 L -185.888671875 20 A 10 10 0 0 0 -195.888671875 30 L -195.888671875 780 A 10 10 0 0 0 -185.888671875 790 L 185.888671875 790 A 10 10 0 0 0 195.888671875 780 L 195.888671875 30 A 10 10 0 0 0 185.888671875 20 L 10 20 Z" fill="rgb(255, 255, 255)" stroke="rgb(0, 0, 0)" stroke-width="2.99716px"/><text class="speech-bubble-content property-key" x="122.607421875" y="55" alignment-baseline="central" text-anchor="end" font-size="50px" font-family="&quot;Gill Sans&quot;, &quot;Gill Sans MT&quot;, Calibri, sans-serif" xml:space="preserve">cord_uid: </text><text class="speech-bubble-content property-key" x="122.607421875" y="105" alignment-baseline="central" text-anchor="end" font-size="50px" font-family="&quot;Gill Sans&quot;, &quot;Gill Sans MT&quot;, Calibri, sans-serif" xml:space="preserve">title: </text><text class="speech-bubble-content property-value" x="122.607421875" y="55" alignment-baseline="central" font-size="50px" font-family="&quot;Gill Sans&quot;, &quot;Gill Sans MT&quot;, Calibri, sans-serif">""</text><text class="speech-bubble-content property-value" x="122.607421875" y="105" alignment-baseline="central" font-size="50px" font-family="&quot;Gill Sans&quot;, &quot;Gill Sans MT&quot;, Calibri, sans-serif">""</text><text class="speech-bubble-content property-key" x="122.607421875" y="155" alignment-baseline="central" text-anchor="end" font-size="50px" font-family="&quot;Gill Sans&quot;, &quot;Gill Sans MT&quot;, Calibri, sans-serif" xml:space="preserve">authors: </text><text class="speech-bubble-content property-value" x="122.607421875" y="155" alignment-baseline="central" font-size="50px" font-family="&quot;Gill Sans&quot;, &quot;Gill Sans MT&quot;, Calibri, sans-serif">""</text><text class="speech-bubble-content property-key" x="122.607421875" y="205" alignment-baseline="central" text-anchor="end" font-size="50px" font-family="&quot;Gill Sans&quot;, &quot;Gill Sans MT&quot;, Calibri, sans-serif" xml:space="preserve">journal: </text><text class="speech-bubble-content property-key" x="122.607421875" y="255" alignment-baseline="central" text-anchor="end" font-size="50px" font-family="&quot;Gill Sans&quot;, &quot;Gill Sans MT&quot;, Calibri, sans-serif" xml:space="preserve">publish_time: </text><text class="speech-bubble-content property-key" x="122.607421875" y="305" alignment-baseline="central" text-anchor="end" font-size="50px" font-family="&quot;Gill Sans&quot;, &quot;Gill Sans MT&quot;, Calibri, sans-serif" xml:space="preserve">abstract: </text><text class="speech-bubble-content property-value" x="122.607421875" y="205" alignment-baseline="central" font-size="50px" font-family="&quot;Gill Sans&quot;, &quot;Gill Sans MT&quot;, Calibri, sans-serif">""</text><text class="speech-bubble-content property-value" x="122.607421875" y="255" alignment-baseline="central" font-size="50px" font-family="&quot;Gill Sans&quot;, &quot;Gill Sans MT&quot;, Calibri, sans-serif">""</text><text class="speech-bubble-content property-value" x="122.607421875" y="305" alignment-baseline="central" font-size="50px" font-family="&quot;Gill Sans&quot;, &quot;Gill Sans MT&quot;, Calibri, sans-serif">""</text><text class="speech-bubble-content property-key" x="122.607421875" y="355" alignment-baseline="central" text-anchor="end" font-size="50px" font-family="&quot;Gill Sans&quot;, &quot;Gill Sans MT&quot;, Calibri, sans-serif" xml:space="preserve">doi: </text><text class="speech-bubble-content property-key" x="122.607421875" y="405" alignment-baseline="central" text-anchor="end" font-size="50px" font-family="&quot;Gill Sans&quot;, &quot;Gill Sans MT&quot;, Calibri, sans-serif" xml:space="preserve">url: </text><text class="speech-bubble-content property-key" x="122.607421875" y="455" alignment-baseline="central" text-anchor="end" font-size="50px" font-family="&quot;Gill Sans&quot;, &quot;Gill Sans MT&quot;, Calibri, sans-serif" xml:space="preserve">sha: </text><text class="speech-bubble-content property-key" x="122.607421875" y="505" alignment-baseline="central" text-anchor="end" font-size="50px" font-family="&quot;Gill Sans&quot;, &quot;Gill Sans MT&quot;, Calibri, sans-serif" xml:space="preserve">source_x: </text><text class="speech-bubble-content property-key" x="122.607421875" y="555" alignment-baseline="central" text-anchor="end" font-size="50px" font-family="&quot;Gill Sans&quot;, &quot;Gill Sans MT&quot;, Calibri, sans-serif" xml:space="preserve">pmcid: </text><text class="speech-bubble-content property-key" x="122.607421875" y="605" alignment-baseline="central" text-anchor="end" font-size="50px" font-family="&quot;Gill Sans&quot;, &quot;Gill Sans MT&quot;, Calibri, sans-serif" xml:space="preserve">pubmed_id: </text><text class="speech-bubble-content property-key" x="122.607421875" y="655" alignment-baseline="central" text-anchor="end" font-size="50px" font-family="&quot;Gill Sans&quot;, &quot;Gill Sans MT&quot;, Calibri, sans-serif" xml:space="preserve">license: </text><text class="speech-bubble-content property-key" x="122.607421875" y="705" alignment-baseline="central" text-anchor="end" font-size="50px" font-family="&quot;Gill Sans&quot;, &quot;Gill Sans MT&quot;, Calibri, sans-serif" xml:space="preserve">microsoft_id: </text><text class="speech-bubble-content property-key" x="122.607421875" y="755" alignment-baseline="central" text-anchor="end" font-size="50px" font-family="&quot;Gill Sans&quot;, &quot;Gill Sans MT&quot;, Calibri, sans-serif" xml:space="preserve">who_id: </text><text class="speech-bubble-content property-value" x="122.607421875" y="355" alignment-baseline="central" font-size="50px" font-family="&quot;Gill Sans&quot;, &quot;Gill Sans MT&quot;, Calibri, sans-serif">""</text><text class="speech-bubble-content property-value" x="122.607421875" y="405" alignment-baseline="central" font-size="50px" font-family="&quot;Gill Sans&quot;, &quot;Gill Sans MT&quot;, Calibri, sans-serif">""</text><text class="speech-bubble-content property-value" x="122.607421875" y="455" alignment-baseline="central" font-size="50px" font-family="&quot;Gill Sans&quot;, &quot;Gill Sans MT&quot;, Calibri, sans-serif">[""]</text><text class="speech-bubble-content property-value" x="122.607421875" y="505" alignment-baseline="central" font-size="50px" font-family="&quot;Gill Sans&quot;, &quot;Gill Sans MT&quot;, Calibri, sans-serif">""</text><text class="speech-bubble-content property-value" x="122.607421875" y="555" alignment-baseline="central" font-size="50px" font-family="&quot;Gill Sans&quot;, &quot;Gill Sans MT&quot;, Calibri, sans-serif">""</text><text class="speech-bubble-content property-value" x="122.607421875" y="605" alignment-baseline="central" font-size="50px" font-family="&quot;Gill Sans&quot;, &quot;Gill Sans MT&quot;, Calibri, sans-serif">""</text><text class="speech-bubble-content property-value" x="122.607421875" y="655" alignment-baseline="central" font-size="50px" font-family="&quot;Gill Sans&quot;, &quot;Gill Sans MT&quot;, Calibri, sans-serif">""</text><text class="speech-bubble-content property-value" x="122.607421875" y="705" alignment-baseline="central" font-size="50px" font-family="&quot;Gill Sans&quot;, &quot;Gill Sans MT&quot;, Calibri, sans-serif">""</text><text class="speech-bubble-content property-value" x="122.607421875" y="755" alignment-baseline="central" font-size="50px" font-family="&quot;Gill Sans&quot;, &quot;Gill Sans MT&quot;, Calibri, sans-serif">""</text></g><g class="speech-bubble node-speech-bubble" transform="translate(-4880.750068790139,-1489.8650928799516) "><path class="speech-bubble-outline" transform="scale(-1,-1) " d="M 0 0 L 30 20 L 149.5068359375 20 A 10 10 0 0 1 159.5068359375 30 L 159.5068359375 80 A 10 10 0 0 1 149.5068359375 90 L 30 90 A 10 10 0 0 1 20 80 L 20 30 Z" fill="rgb(255, 255, 255)" stroke="rgb(0, 0, 0)" stroke-width="2.99716px"/><text class="speech-bubble-content property-key" x="-82.8076171875" y="-55" alignment-baseline="central" text-anchor="end" font-size="50px" font-family="&quot;Gill Sans&quot;, &quot;Gill Sans MT&quot;, Calibri, sans-serif" xml:space="preserve">id: </text><text class="speech-bubble-content property-value" x="-82.8076171875" y="-55" alignment-baseline="central" font-size="50px" font-family="&quot;Gill Sans&quot;, &quot;Gill Sans MT&quot;, Calibri, sans-serif">int</text></g><g class="speech-bubble node-speech-bubble" transform="translate(-4915.467280931865,-806.975878171527) "><path class="speech-bubble-outline" transform="scale(-1,1) " d="M 0 0 L 30 20 L 379.5361328125 20 A 10 10 0 0 1 389.5361328125 30 L 389.5361328125 80 A 10 10 0 0 1 379.5361328125 90 L 30 90 A 10 10 0 0 1 20 80 L 20 30 Z" fill="rgb(255, 255, 255)" stroke="rgb(0, 0, 0)" stroke-width="2.99716px"/><text class="speech-bubble-content property-key" x="-65.498046875" y="55" alignment-baseline="central" text-anchor="end" font-size="50px" font-family="&quot;Gill Sans&quot;, &quot;Gill Sans MT&quot;, Calibri, sans-serif" xml:space="preserve">cord_version: </text><text class="speech-bubble-content property-value" x="-65.498046875" y="55" alignment-baseline="central" font-size="50px" font-family="&quot;Gill Sans&quot;, &quot;Gill Sans MT&quot;, Calibri, sans-serif">""</text></g><g class="speech-bubble node-speech-bubble" transform="translate(-4225.1475882301975,-1431.536181926726) "><path class="speech-bubble-outline" transform="scale(1,1) " d="M 0 0 L 20 -10 L 20 -25 A 10 10 0 0 1 30 -35 L 173.8720703125 -35 A 10 10 0 0 1 183.8720703125 -25 L 183.8720703125 25 A 10 10 0 0 1 173.8720703125 35 L 30 35 A 10 10 0 0 1 20 25 L 20 10 Z" fill="rgb(255, 255, 255)" stroke="rgb(0, 0, 0)" stroke-width="2.99716px"/><text class="speech-bubble-content property-key" x="138.3740234375" y="0" alignment-baseline="central" text-anchor="end" font-size="50px" font-family="&quot;Gill Sans&quot;, &quot;Gill Sans MT&quot;, Calibri, sans-serif" xml:space="preserve">text: </text><text class="speech-bubble-content property-value" x="138.3740234375" y="0" alignment-baseline="central" font-size="50px" font-family="&quot;Gill Sans&quot;, &quot;Gill Sans MT&quot;, Calibri, sans-serif">""</text></g><g class="speech-bubble node-speech-bubble" transform="translate(-2861.3835265311536,-799.2912635478317) "><path class="speech-bubble-outline" transform="scale(1,1) " d="M 0 0 L 30 20 L 315.6689453125 20 A 10 10 0 0 1 325.6689453125 30 L 325.6689453125 130 A 10 10 0 0 1 315.6689453125 140 L 30 140 A 10 10 0 0 1 20 130 L 20 30 Z" fill="rgb(255, 255, 255)" stroke="rgb(0, 0, 0)" stroke-width="2.99716px"/><text class="speech-bubble-content property-key" x="280.1708984375" y="55" alignment-baseline="central" text-anchor="end" font-size="50px" font-family="&quot;Gill Sans&quot;, &quot;Gill Sans MT&quot;, Calibri, sans-serif" xml:space="preserve">tree_code: </text><text class="speech-bubble-content property-value" x="280.1708984375" y="55" alignment-baseline="central" font-size="50px" font-family="&quot;Gill Sans&quot;, &quot;Gill Sans MT&quot;, Calibri, sans-serif">""</text><text class="speech-bubble-content property-key" x="280.1708984375" y="105" alignment-baseline="central" text-anchor="end" font-size="50px" font-family="&quot;Gill Sans&quot;, &quot;Gill Sans MT&quot;, Calibri, sans-serif" xml:space="preserve">term: </text><text class="speech-bubble-content property-value" x="280.1708984375" y="105" alignment-baseline="central" font-size="50px" font-family="&quot;Gill Sans&quot;, &quot;Gill Sans MT&quot;, Calibri, sans-serif">""</text></g><g class="speech-bubble node-speech-bubble" transform="translate(-2962.114264249801,-1709.0158597000363) "><path class="speech-bubble-outline" transform="scale(1,-1) " d="M 0 0 L -10 20 L -142.83447265625 20 A 10 10 0 0 0 -152.83447265625 30 L -152.83447265625 130 A 10 10 0 0 0 -142.83447265625 140 L 142.83447265625 140 A 10 10 0 0 0 152.83447265625 130 L 152.83447265625 30 A 10 10 0 0 0 142.83447265625 20 L 10 20 Z" fill="rgb(255, 255, 255)" stroke="rgb(0, 0, 0)" stroke-width="2.99716px"/><text class="speech-bubble-content property-key" x="107.33642578125" y="-105" alignment-baseline="central" text-anchor="end" font-size="50px" font-family="&quot;Gill Sans&quot;, &quot;Gill Sans MT&quot;, Calibri, sans-serif" xml:space="preserve">tree_code: </text><text class="speech-bubble-content property-value" x="107.33642578125" y="-105" alignment-baseline="central" font-size="50px" font-family="&quot;Gill Sans&quot;, &quot;Gill Sans MT&quot;, Calibri, sans-serif">""</text><text class="speech-bubble-content property-key" x="107.33642578125" y="-55" alignment-baseline="central" text-anchor="end" font-size="50px" font-family="&quot;Gill Sans&quot;, &quot;Gill Sans MT&quot;, Calibri, sans-serif" xml:space="preserve">term: </text><text class="speech-bubble-content property-value" x="107.33642578125" y="-55" alignment-baseline="central" font-size="50px" font-family="&quot;Gill Sans&quot;, &quot;Gill Sans MT&quot;, Calibri, sans-serif">""</text></g><g class="speech-bubble node-speech-bubble" transform="translate(-3978.8703092144383,-1881.260092657451) "><path class="speech-bubble-outline" transform="scale(1,-1) " d="M 0 0 L -10 20 L -133.10546875 20 A 10 10 0 0 0 -143.10546875 30 L -143.10546875 130 A 10 10 0 0 0 -133.10546875 140 L 133.10546875 140 A 10 10 0 0 0 143.10546875 130 L 143.10546875 30 A 10 10 0 0 0 133.10546875 20 L 10 20 Z" fill="rgb(255, 255, 255)" stroke="rgb(0, 0, 0)" stroke-width="2.99716px"/><text class="speech-bubble-content property-key" x="69.82421875" y="-105" alignment-baseline="central" text-anchor="end" font-size="50px" font-family="&quot;Gill Sans&quot;, &quot;Gill Sans MT&quot;, Calibri, sans-serif" xml:space="preserve">seq: </text><text class="speech-bubble-content property-value" x="69.82421875" y="-105" alignment-baseline="central" font-size="50px" font-family="&quot;Gill Sans&quot;, &quot;Gill Sans MT&quot;, Calibri, sans-serif">[""]</text><text class="speech-bubble-content property-key" x="69.82421875" y="-55" alignment-baseline="central" text-anchor="end" font-size="50px" font-family="&quot;Gill Sans&quot;, &quot;Gill Sans MT&quot;, Calibri, sans-serif" xml:space="preserve">seq_len: </text><text class="speech-bubble-content property-value" x="69.82421875" y="-55" alignment-baseline="central" font-size="50px" font-family="&quot;Gill Sans&quot;, &quot;Gill Sans MT&quot;, Calibri, sans-serif">int</text></g><g class="speech-bubble relationship-speech-bubble" transform="translate(-3749.111939323119,-900.0220012664795) "><path class="speech-bubble-outline" transform="scale(1,1) " d="M 0 0 L -10 20 L -101.45263671875 20 A 10 10 0 0 0 -111.45263671875 30 L -111.45263671875 80 A 10 10 0 0 0 -101.45263671875 90 L 101.45263671875 90 A 10 10 0 0 0 111.45263671875 80 L 111.45263671875 30 A 10 10 0 0 0 101.45263671875 20 L 10 20 Z" fill="rgb(255, 255, 255)" stroke="rgb(0, 0, 0)" stroke-width="2.99716px"/><text class="speech-bubble-content property-key" x="48.64501953125" y="55" alignment-baseline="central" text-anchor="end" font-size="50px" font-family="&quot;Gill Sans&quot;, &quot;Gill Sans MT&quot;, Calibri, sans-serif" xml:space="preserve">count: </text><text class="speech-bubble-content property-value" x="48.64501953125" y="55" alignment-baseline="central" font-size="50px" font-family="&quot;Gill Sans&quot;, &quot;Gill Sans MT&quot;, Calibri, sans-serif">int</text></g><g class="speech-bubble relationship-speech-bubble" transform="translate(-3628.4688801889847,-1200.2911075508287) "><path class="speech-bubble-outline" transform="scale(-1,1) " d="M 0 0 L 30 20 L 232.9052734375 20 A 10 10 0 0 1 242.9052734375 30 L 242.9052734375 80 A 10 10 0 0 1 232.9052734375 90 L 30 90 A 10 10 0 0 1 20 80 L 20 30 Z" fill="rgb(255, 255, 255)" stroke="rgb(0, 0, 0)" stroke-width="2.99716px"/><text class="speech-bubble-content property-key" x="-82.8076171875" y="55" alignment-baseline="central" text-anchor="end" font-size="50px" font-family="&quot;Gill Sans&quot;, &quot;Gill Sans MT&quot;, Calibri, sans-serif" xml:space="preserve">count: </text><text class="speech-bubble-content property-value" x="-82.8076171875" y="55" alignment-baseline="central" font-size="50px" font-family="&quot;Gill Sans&quot;, &quot;Gill Sans MT&quot;, Calibri, sans-serif">int</text></g><g class="speech-bubble node-speech-bubble" transform="translate(-3754.544726562496,-1500.3315022546835) "><path class="speech-bubble-outline" transform="scale(1,-1) " d="M 0 0 L -10 20 L -78.89404296875 20 A 10 10 0 0 0 -88.89404296875 30 L -88.89404296875 130 A 10 10 0 0 0 -78.89404296875 140 L 78.89404296875 140 A 10 10 0 0 0 88.89404296875 130 L 88.89404296875 30 A 10 10 0 0 0 78.89404296875 20 L 10 20 Z" fill="rgb(255, 255, 255)" stroke="rgb(0, 0, 0)" stroke-width="2.99716px"/><text class="speech-bubble-content property-key" x="43.39599609375" y="-105" alignment-baseline="central" text-anchor="end" font-size="50px" font-family="&quot;Gill Sans&quot;, &quot;Gill Sans MT&quot;, Calibri, sans-serif" xml:space="preserve">text: </text><text class="speech-bubble-content property-value" x="43.39599609375" y="-105" alignment-baseline="central" font-size="50px" font-family="&quot;Gill Sans&quot;, &quot;Gill Sans MT&quot;, Calibri, sans-serif">""</text><text class="speech-bubble-content property-key" x="43.39599609375" y="-55" alignment-baseline="central" text-anchor="end" font-size="50px" font-family="&quot;Gill Sans&quot;, &quot;Gill Sans MT&quot;, Calibri, sans-serif" xml:space="preserve">type: </text><text class="speech-bubble-content property-value" x="43.39599609375" y="-55" alignment-baseline="central" font-size="50px" font-family="&quot;Gill Sans&quot;, &quot;Gill Sans MT&quot;, Calibri, sans-serif">""</text></g><g class="speech-bubble relationship-speech-bubble" transform="translate(-4578.458370465426,-1431.536181926726) "><path class="speech-bubble-outline" transform="scale(1,1) " d="M 0 0 L -10 20 L -111.181640625 20 A 10 10 0 0 0 -121.181640625 30 L -121.181640625 80 A 10 10 0 0 0 -111.181640625 90 L 111.181640625 90 A 10 10 0 0 0 121.181640625 80 L 121.181640625 30 A 10 10 0 0 0 111.181640625 20 L 10 20 Z" fill="rgb(255, 255, 255)" stroke="rgb(0, 0, 0)" stroke-width="2.99716px"/><text class="speech-bubble-content property-key" x="16.6748046875" y="55" alignment-baseline="central" text-anchor="end" font-size="50px" font-family="&quot;Gill Sans&quot;, &quot;Gill Sans MT&quot;, Calibri, sans-serif" xml:space="preserve">prob: </text><text class="speech-bubble-content property-value" x="16.6748046875" y="55" alignment-baseline="central" font-size="50px" font-family="&quot;Gill Sans&quot;, &quot;Gill Sans MT&quot;, Calibri, sans-serif">float</text></g><g class="speech-bubble relationship-speech-bubble" transform="translate(-4822.421157836913,-1174.3278677259095) "><path class="speech-bubble-outline" transform="scale(1,1) " d="M 0 0 L 20 -10 L 20 -25 A 10 10 0 0 1 30 -35 L 296.8212890625 -35 A 10 10 0 0 1 306.8212890625 -25 L 306.8212890625 25 A 10 10 0 0 1 296.8212890625 35 L 30 35 A 10 10 0 0 1 20 25 L 20 10 Z" fill="rgb(255, 255, 255)" stroke="rgb(0, 0, 0)" stroke-width="2.99716px"/><text class="speech-bubble-content property-key" x="244.013671875" y="0" alignment-baseline="central" text-anchor="end" font-size="50px" font-family="&quot;Gill Sans&quot;, &quot;Gill Sans MT&quot;, Calibri, sans-serif" xml:space="preserve">n_topics: </text><text class="speech-bubble-content property-value" x="244.013671875" y="0" alignment-baseline="central" font-size="50px" font-family="&quot;Gill Sans&quot;, &quot;Gill Sans MT&quot;, Calibri, sans-serif">int</text></g><g class="speech-bubble relationship-speech-bubble" transform="translate(-4391.47836955353,-1160.0028139028198) "><path class="speech-bubble-outline" transform="scale(-1,1) " d="M 0 0 L 30 20 L 338.5205078125 20 A 10 10 0 0 1 348.5205078125 30 L 348.5205078125 130 A 10 10 0 0 1 338.5205078125 140 L 30 140 A 10 10 0 0 1 20 130 L 20 30 Z" fill="rgb(255, 255, 255)" stroke="rgb(0, 0, 0)" stroke-width="2.99716px"/><text class="speech-bubble-content property-key" x="-124.5068359375" y="55" alignment-baseline="central" text-anchor="end" font-size="50px" font-family="&quot;Gill Sans&quot;, &quot;Gill Sans MT&quot;, Calibri, sans-serif" xml:space="preserve">prob: </text><text class="speech-bubble-content property-value" x="-124.5068359375" y="55" alignment-baseline="central" font-size="50px" font-family="&quot;Gill Sans&quot;, &quot;Gill Sans MT&quot;, Calibri, sans-serif">float</text><text class="speech-bubble-content property-key" x="-124.5068359375" y="105" alignment-baseline="central" text-anchor="end" font-size="50px" font-family="&quot;Gill Sans&quot;, &quot;Gill Sans MT&quot;, Calibri, sans-serif" xml:space="preserve">n_topics: </text><text class="speech-bubble-content property-value" x="-124.5068359375" y="105" alignment-baseline="central" font-size="50px" font-family="&quot;Gill Sans&quot;, &quot;Gill Sans MT&quot;, Calibri, sans-serif">int</text></g></g><g class="layer overlay"><circle class="node overlay" r="119.41005785454631" stroke="none" fill="rgba(255, 255, 255, 0)" cx="-3464.7608236312917" cy="-900.0220012664795"/><circle class="node overlay" r="96.81731205403813" stroke="none" fill="rgba(255, 255, 255, 0)" cx="-3978.8703092144383" cy="-900.0220012664795"/><circle class="node ring" r="124.41005785454631" fill="none" stroke="rgba(255, 255, 255, 0)" stroke-width="10px" cx="-3464.7608236312917" cy="-900.0220012664795"/><circle class="node ring" r="101.81731205403813" fill="none" stroke="rgba(255, 255, 255, 0)" stroke-width="10px" cx="-3978.8703092144383" cy="-900.0220012664795"/><path class="relationship overlay" fill="rgba(255, 255, 255, 0)" stroke="rgba(255, 255, 255, 0)" stroke-width="10px" transform="translate(-3978.8703092144383,-900.0220012664795) rotate(0)" d="M 107.81731205403813 4 L 351.6994277286006 4 L 351.6994277286006 16 L 383.6994277286006 0 L 351.6994277286006 -16 L 351.6994277286006 -4 L 107.81731205403813 -4 Z"/><circle class="node overlay" r="86.48811694850433" stroke="none" fill="rgba(255, 255, 255, 0)" cx="-4822.421157836913" cy="-1431.536181926726"/><circle class="node ring" r="91.48811694850433" fill="none" stroke="rgba(255, 255, 255, 0)" stroke-width="10px" cx="-4822.421157836913" cy="-1431.536181926726"/><circle class="node overlay" r="135.5856692071182" stroke="none" fill="rgba(255, 255, 255, 0)" cx="-4822.421157836913" cy="-900.0220012664795"/><circle class="node ring" r="140.5856692071182" fill="none" stroke="rgba(255, 255, 255, 0)" stroke-width="10px" cx="-4822.421157836913" cy="-900.0220012664795"/><circle class="node overlay" r="83.9173459061228" stroke="none" fill="rgba(255, 255, 255, 0)" cx="-4305.06635413632" cy="-1431.536181926726"/><circle class="node ring" r="88.9173459061228" fill="none" stroke="rgba(255, 255, 255, 0)" stroke-width="10px" cx="-4305.06635413632" cy="-1431.536181926726"/><circle class="node overlay" r="146.45335542955877" stroke="none" fill="rgba(255, 255, 255, 0)" cx="-2962.114264249801" cy="-900.0220012664795"/><circle class="node ring" r="151.45335542955877" fill="none" stroke="rgba(255, 255, 255, 0)" stroke-width="10px" cx="-2962.114264249801" cy="-900.0220012664795"/><circle class="node overlay" r="146.45335542955877" stroke="none" fill="rgba(255, 255, 255, 0)" cx="-2962.114264249801" cy="-1566.5610842704775"/><circle class="node ring" r="151.45335542955877" fill="none" stroke="rgba(255, 255, 255, 0)" stroke-width="10px" cx="-2962.114264249801" cy="-1566.5610842704775"/><path class="relationship overlay" fill="rgba(255, 255, 255, 0)" stroke="rgba(255, 255, 255, 0)" stroke-width="10px" transform="translate(-3464.7608236312917,-900.0220012664795) rotate(0)" d="M 130.41005785454632 4 L 313.19320395193137 4 L 313.19320395193137 16 L 345.19320395193137 0 L 313.19320395193137 -16 L 313.19320395193137 -4 L 130.41005785454632 -4 Z"/><circle class="node overlay" r="162.847490730725" stroke="none" fill="rgba(255, 255, 255, 0)" cx="-3978.8703092144383" cy="-1722.411181926726"/><circle class="node ring" r="167.847490730725" fill="none" stroke="rgba(255, 255, 255, 0)" stroke-width="10px" cx="-3978.8703092144383" cy="-1722.411181926726"/><path class="relationship overlay" fill="rgba(255, 255, 255, 0)" stroke="rgba(255, 255, 255, 0)" stroke-width="10px" transform="translate(-2962.114264249801,-900.0220012664795) rotate(-90)" d="M 157.45335542955877 4 L 477.08572757443915 4 L 477.08572757443915 16 L 509.08572757443915 0 L 477.08572757443915 -16 L 477.08572757443915 -4 L 157.45335542955877 -4 Z"/><path class="relationship overlay" fill="rgba(255, 255, 255, 0)" stroke="rgba(255, 255, 255, 0)" stroke-width="10px" transform="translate(-4822.421157836913,-900.0220012664795) rotate(0)" d="M 146.5856692071182 4 L 703.733536568437 4 L 703.733536568437 16 L 735.733536568437 0 L 703.733536568437 -16 L 703.733536568437 -4 L 146.5856692071182 -4 Z"/><circle class="node overlay" r="72.79390032795759" stroke="none" fill="rgba(255, 255, 255, 0)" cx="-3754.544726562496" cy="-1431.536181926726"/><circle class="node ring" r="77.79390032795759" fill="none" stroke="rgba(255, 255, 255, 0)" stroke-width="10px" cx="-3754.544726562496" cy="-1431.536181926726"/><path class="relationship overlay" fill="rgba(255, 255, 255, 0)" stroke="rgba(255, 255, 255, 0)" stroke-width="10px" transform="translate(-3978.8703092144383,-900.0220012664795) rotate(-90)" d="M 107.81731205403813 4 L 616.5416899295216 4 L 616.5416899295216 16 L 648.5416899295216 0 L 616.5416899295216 -16 L 616.5416899295216 -4 L 107.81731205403813 -4 Z"/><path class="relationship overlay" fill="rgba(255, 255, 255, 0)" stroke="rgba(255, 255, 255, 0)" stroke-width="10px" transform="translate(-3978.8703092144383,-900.0220012664795) rotate(-67.1178214281973)" d="M 107.81731205403813 4 L 461.1196904939837 4 L 461.1196904939837 16 L 493.1196904939837 0 L 461.1196904939837 -16 L 461.1196904939837 -4 L 107.81731205403813 -4 Z"/><path class="relationship overlay" fill="rgba(255, 255, 255, 0)" stroke="rgba(255, 255, 255, 0)" stroke-width="10px" transform="translate(-3754.544726562496,-1431.536181926726) rotate(61.400584652036514)" d="M 83.79390032795759 4 L 442.96753889063785 4 L 442.96753889063785 16 L 474.96753889063785 0 L 442.96753889063785 -16 L 442.96753889063785 -4 L 83.79390032795759 -4 Z"/><path class="relationship overlay" fill="rgba(255, 255, 255, 0)" stroke="rgba(255, 255, 255, 0)" stroke-width="10px" transform="translate(-4822.421157836913,-1431.536181926726) rotate(0)" d="M 97.48811694850433 4 L 390.43745779447045 4 L 390.43745779447045 16 L 422.43745779447045 0 L 390.43745779447045 -16 L 390.43745779447045 -4 L 97.48811694850433 -4 Z"/><path class="relationship overlay" fill="rgba(255, 255, 255, 0)" stroke="rgba(255, 255, 255, 0)" stroke-width="10px" transform="translate(-4822.421157836913,-900.0220012664795) rotate(-90)" d="M 146.5856692071182 4 L 402.026063711742 4 L 402.026063711742 16 L 434.026063711742 0 L 402.026063711742 -16 L 402.026063711742 -4 L 146.5856692071182 -4 Z"/><path class="relationship overlay" fill="rgba(255, 255, 255, 0)" stroke="rgba(255, 255, 255, 0)" stroke-width="10px" transform="translate(-3978.8703092144383,-900.0220012664795) rotate(-147.7853213226004)" d="M 107.81731205403813 4 L 867.5501764257426 4 L 867.5501764257426 16 L 899.5501764257426 0 L 867.5501764257426 -16 L 867.5501764257426 -4 L 107.81731205403813 -4 Z"/></g></svg>